<svg width="60" height="60" viewBox="0 0 60 60" fill="none" xmlns="http://www.w3.org/2000/svg">
<circle cx="30" cy="30" r="30" fill="#FC4B02"/>
<path d="M29.936 44.36C27.896 44.36 26.144 44.012 24.68 43.316C23.24 42.62 21.932 41.576 20.756 40.184L23.996 36.944C24.74 37.928 25.604 38.696 26.588 39.248C27.572 39.776 28.772 40.04 30.188 40.04C31.46 40.04 32.468 39.788 33.212 39.284C33.98 38.78 34.364 38.084 34.364 37.196C34.364 36.428 34.148 35.804 33.716 35.324C33.284 34.844 32.708 34.436 31.988 34.1C31.292 33.764 30.512 33.464 29.648 33.2C28.808 32.912 27.956 32.588 27.092 32.228C26.252 31.868 25.472 31.424 24.752 30.896C24.056 30.344 23.492 29.648 23.06 28.808C22.628 27.944 22.412 26.864 22.412 25.568C22.412 24.032 22.784 22.724 23.528 21.644C24.272 20.564 25.292 19.736 26.588 19.16C27.884 18.584 29.348 18.296 30.98 18.296C32.708 18.296 34.268 18.62 35.66 19.268C37.052 19.916 38.192 20.756 39.08 21.788L35.84 25.028C35.096 24.212 34.328 23.612 33.536 23.228C32.768 22.844 31.892 22.652 30.908 22.652C29.78 22.652 28.892 22.868 28.244 23.3C27.596 23.732 27.272 24.356 27.272 25.172C27.272 25.868 27.488 26.432 27.92 26.864C28.352 27.296 28.916 27.668 29.612 27.98C30.332 28.292 31.112 28.592 31.952 28.88C32.816 29.168 33.668 29.492 34.508 29.852C35.372 30.212 36.152 30.68 36.848 31.256C37.568 31.832 38.144 32.576 38.576 33.488C39.008 34.376 39.224 35.48 39.224 36.8C39.224 39.152 38.396 41 36.74 42.344C35.084 43.688 32.816 44.36 29.936 44.36Z" fill="white"/>
</svg>
