<svg width="180" height="193" viewBox="0 0 180 193" fill="none" xmlns="http://www.w3.org/2000/svg">
<path d="M1.125 41V30.575H4.53C5.65 30.575 6.62 30.79 7.44 31.22C8.27 31.64 8.915 32.245 9.375 33.035C9.835 33.815 10.065 34.745 10.065 35.825C10.065 36.895 9.835 37.82 9.375 38.6C8.915 39.37 8.27 39.965 7.44 40.385C6.62 40.795 5.65 41 4.53 41H1.125ZM2.835 39.605H4.53C5.76 39.605 6.695 39.27 7.335 38.6C7.985 37.93 8.31 37.005 8.31 35.825C8.31 34.635 7.985 33.695 7.335 33.005C6.695 32.315 5.76 31.97 4.53 31.97H2.835V39.605ZM15.5998 41.105C14.9298 41.105 14.3198 41 13.7698 40.79C13.2298 40.58 12.7648 40.285 12.3748 39.905C11.9948 39.525 11.6998 39.085 11.4898 38.585C11.2898 38.075 11.1898 37.52 11.1898 36.92C11.1898 36.27 11.3048 35.685 11.5348 35.165C11.7748 34.635 12.0948 34.18 12.4948 33.8C12.9048 33.42 13.3748 33.13 13.9048 32.93C14.4348 32.73 14.9898 32.63 15.5698 32.63C16.0898 32.63 16.5648 32.7 16.9948 32.84C17.4248 32.98 17.7948 33.175 18.1048 33.425C18.4248 33.675 18.6698 33.965 18.8398 34.295C19.0098 34.625 19.0948 34.98 19.0948 35.36C19.0948 35.89 18.9398 36.33 18.6298 36.68C18.3198 37.03 17.9148 37.305 17.4148 37.505C16.9148 37.705 16.3648 37.84 15.7648 37.91C15.1648 37.98 14.5698 38 13.9798 37.97C13.8798 37.96 13.7548 37.955 13.6048 37.955C13.4548 37.945 13.3198 37.94 13.1998 37.94C13.0898 37.93 13.0298 37.925 13.0198 37.925C13.0898 38.255 13.2448 38.555 13.4848 38.825C13.7348 39.085 14.0448 39.29 14.4148 39.44C14.7848 39.59 15.1798 39.665 15.5998 39.665C15.9398 39.665 16.2748 39.605 16.6048 39.485C16.9448 39.365 17.2548 39.2 17.5348 38.99C17.8148 38.78 18.0498 38.54 18.2398 38.27L19.5148 39.185C19.1848 39.625 18.8098 39.99 18.3898 40.28C17.9798 40.56 17.5398 40.77 17.0698 40.91C16.5998 41.04 16.1098 41.105 15.5998 41.105ZM14.1298 36.605C14.4998 36.605 14.8748 36.59 15.2548 36.56C15.6348 36.52 15.9848 36.455 16.3048 36.365C16.6348 36.265 16.8998 36.13 17.0998 35.96C17.2998 35.79 17.3998 35.57 17.3998 35.3C17.3998 35.07 17.3248 34.865 17.1748 34.685C17.0348 34.495 16.8348 34.345 16.5748 34.235C16.3148 34.125 16.0098 34.07 15.6598 34.07C15.1398 34.07 14.6748 34.185 14.2648 34.415C13.8548 34.645 13.5298 34.95 13.2898 35.33C13.0598 35.71 12.9348 36.12 12.9148 36.56C13.0548 36.57 13.2298 36.58 13.4398 36.59C13.6498 36.6 13.8798 36.605 14.1298 36.605ZM23.9119 41.105C23.3319 41.105 22.8119 41.005 22.3519 40.805C21.8919 40.595 21.5119 40.315 21.2119 39.965C20.9119 39.615 20.7069 39.235 20.5969 38.825L22.2319 38.465C22.3319 38.835 22.5319 39.13 22.8319 39.35C23.1419 39.56 23.4919 39.665 23.8819 39.665C24.3819 39.665 24.7569 39.575 25.0069 39.395C25.2669 39.205 25.3969 38.97 25.3969 38.69C25.3969 38.42 25.2819 38.21 25.0519 38.06C24.8219 37.91 24.5219 37.785 24.1519 37.685C23.7919 37.585 23.4069 37.48 22.9969 37.37C22.5869 37.26 22.1969 37.115 21.8269 36.935C21.4669 36.755 21.1719 36.515 20.9419 36.215C20.7119 35.905 20.5969 35.5 20.5969 35C20.5969 34.56 20.7269 34.16 20.9869 33.8C21.2469 33.44 21.6119 33.155 22.0819 32.945C22.5619 32.735 23.1269 32.63 23.7769 32.63C24.3369 32.63 24.8319 32.72 25.2619 32.9C25.6919 33.08 26.0469 33.335 26.3269 33.665C26.6069 33.985 26.7969 34.37 26.8969 34.82L25.2619 35.24C25.1619 34.86 24.9869 34.57 24.7369 34.37C24.4869 34.17 24.1469 34.07 23.7169 34.07C23.2569 34.07 22.9069 34.155 22.6669 34.325C22.4369 34.485 22.3219 34.705 22.3219 34.985C22.3219 35.255 22.4369 35.47 22.6669 35.63C22.8969 35.78 23.1919 35.91 23.5519 36.02C23.9119 36.12 24.2919 36.225 24.6919 36.335C25.1019 36.445 25.4869 36.59 25.8469 36.77C26.2069 36.94 26.5019 37.18 26.7319 37.49C26.9619 37.79 27.0769 38.185 27.0769 38.675C27.0769 39.105 26.9469 39.505 26.6869 39.875C26.4369 40.245 26.0719 40.545 25.5919 40.775C25.1219 40.995 24.5619 41.105 23.9119 41.105ZM28.9727 41V32.735H30.6827V41H28.9727ZM29.8427 31.64C29.4827 31.64 29.1777 31.525 28.9277 31.295C28.6777 31.065 28.5527 30.78 28.5527 30.44C28.5527 30.1 28.6777 29.815 28.9277 29.585C29.1777 29.345 29.4827 29.225 29.8427 29.225C30.1927 29.225 30.4927 29.345 30.7427 29.585C31.0027 29.815 31.1327 30.1 31.1327 30.44C31.1327 30.78 31.0027 31.065 30.7427 31.295C30.4927 31.525 30.1927 31.64 29.8427 31.64ZM36.8396 45.035C36.1696 45.035 35.5496 44.93 34.9796 44.72C34.4196 44.51 33.9346 44.2 33.5246 43.79C33.1146 43.38 32.8046 42.88 32.5946 42.29L34.1546 41.66C34.3846 42.24 34.7446 42.695 35.2346 43.025C35.7246 43.365 36.2596 43.535 36.8396 43.535C37.3096 43.535 37.7196 43.445 38.0696 43.265C38.4296 43.085 38.7096 42.815 38.9096 42.455C39.1096 42.095 39.2096 41.65 39.2096 41.12V39.2C38.9796 39.79 38.6096 40.255 38.0996 40.595C37.5896 40.935 36.9946 41.105 36.3146 41.105C35.5946 41.105 34.9396 40.93 34.3496 40.58C33.7696 40.22 33.3046 39.725 32.9546 39.095C32.6146 38.455 32.4446 37.71 32.4446 36.86C32.4446 36.01 32.6146 35.27 32.9546 34.64C33.3046 34 33.7696 33.505 34.3496 33.155C34.9396 32.805 35.5946 32.63 36.3146 32.63C36.9946 32.63 37.5896 32.8 38.0996 33.14C38.6096 33.47 38.9796 33.93 39.2096 34.52V32.735H40.9346V41.09C40.9346 41.67 40.8396 42.2 40.6496 42.68C40.4696 43.16 40.2046 43.575 39.8546 43.925C39.5046 44.275 39.0746 44.545 38.5646 44.735C38.0646 44.935 37.4896 45.035 36.8396 45.035ZM36.7046 39.62C37.1346 39.62 37.5396 39.515 37.9196 39.305C38.2996 39.095 38.6096 38.785 38.8496 38.375C39.0896 37.955 39.2096 37.45 39.2096 36.86C39.2096 36.26 39.0896 35.76 38.8496 35.36C38.6096 34.95 38.2996 34.64 37.9196 34.43C37.5396 34.22 37.1346 34.115 36.7046 34.115C36.2846 34.115 35.8796 34.22 35.4896 34.43C35.1096 34.64 34.7996 34.95 34.5596 35.36C34.3196 35.76 34.1996 36.26 34.1996 36.86C34.1996 37.45 34.3196 37.955 34.5596 38.375C34.7996 38.785 35.1096 39.095 35.4896 39.305C35.8796 39.515 36.2846 39.62 36.7046 39.62ZM43.1807 41V32.735H44.8907V34.46C45.0207 34.11 45.2257 33.8 45.5057 33.53C45.7857 33.25 46.1057 33.03 46.4657 32.87C46.8357 32.71 47.2057 32.63 47.5757 32.63C48.2057 32.63 48.7557 32.77 49.2257 33.05C49.7057 33.32 50.0757 33.715 50.3357 34.235C50.6057 34.755 50.7407 35.385 50.7407 36.125V41H49.0457V36.53C49.0457 35.78 48.8557 35.19 48.4757 34.76C48.0957 34.33 47.5957 34.115 46.9757 34.115C46.5757 34.115 46.2157 34.225 45.8957 34.445C45.5857 34.665 45.3407 34.97 45.1607 35.36C44.9807 35.74 44.8907 36.18 44.8907 36.68V41H43.1807ZM56.6684 41V39.605H57.8534V31.97H56.6684V30.575H60.7484V31.97H59.5634V39.605H60.7484V41H56.6684ZM62.8535 41V32.735H64.5635V34.46C64.6935 34.11 64.8985 33.8 65.1785 33.53C65.4585 33.25 65.7785 33.03 66.1385 32.87C66.5085 32.71 66.8785 32.63 67.2485 32.63C67.8785 32.63 68.4285 32.77 68.8985 33.05C69.3785 33.32 69.7485 33.715 70.0085 34.235C70.2785 34.755 70.4135 35.385 70.4135 36.125V41H68.7185V36.53C68.7185 35.78 68.5285 35.19 68.1485 34.76C67.7685 34.33 67.2685 34.115 66.6485 34.115C66.2485 34.115 65.8885 34.225 65.5685 34.445C65.2585 34.665 65.0135 34.97 64.8335 35.36C64.6535 35.74 64.5635 36.18 64.5635 36.68V41H62.8535ZM75.3697 41.105C74.7397 41.105 74.2147 40.89 73.7947 40.46C73.3747 40.03 73.1647 39.445 73.1647 38.705V34.13H71.8897V32.735H76.8997V34.13H74.8897V38.81C74.8897 39.09 74.9597 39.29 75.0997 39.41C75.2497 39.53 75.4097 39.59 75.5797 39.59C75.7297 39.59 75.8647 39.565 75.9847 39.515C76.1047 39.465 76.2197 39.385 76.3297 39.275L77.2147 40.34C76.9347 40.61 76.6497 40.805 76.3597 40.925C76.0697 41.045 75.7397 41.105 75.3697 41.105ZM72.5047 33.38V32.735C72.7147 32.735 72.8747 32.675 72.9847 32.555C73.1047 32.435 73.1647 32.27 73.1647 32.06V30.68H74.8897V31.775C74.8897 31.915 74.8547 32.055 74.7847 32.195C74.7147 32.325 74.6147 32.44 74.4847 32.54C74.3647 32.63 74.2297 32.695 74.0797 32.735L72.5047 33.38ZM82.4845 41.105C81.8145 41.105 81.2045 41 80.6545 40.79C80.1145 40.58 79.6495 40.285 79.2595 39.905C78.8795 39.525 78.5845 39.085 78.3745 38.585C78.1745 38.075 78.0745 37.52 78.0745 36.92C78.0745 36.27 78.1895 35.685 78.4195 35.165C78.6595 34.635 78.9795 34.18 79.3795 33.8C79.7895 33.42 80.2595 33.13 80.7895 32.93C81.3195 32.73 81.8745 32.63 82.4545 32.63C82.9745 32.63 83.4495 32.7 83.8795 32.84C84.3095 32.98 84.6795 33.175 84.9895 33.425C85.3095 33.675 85.5545 33.965 85.7245 34.295C85.8945 34.625 85.9795 34.98 85.9795 35.36C85.9795 35.89 85.8245 36.33 85.5145 36.68C85.2045 37.03 84.7995 37.305 84.2995 37.505C83.7995 37.705 83.2495 37.84 82.6495 37.91C82.0495 37.98 81.4545 38 80.8645 37.97C80.7645 37.96 80.6395 37.955 80.4895 37.955C80.3395 37.945 80.2045 37.94 80.0845 37.94C79.9745 37.93 79.9145 37.925 79.9045 37.925C79.9745 38.255 80.1295 38.555 80.3695 38.825C80.6195 39.085 80.9295 39.29 81.2995 39.44C81.6695 39.59 82.0645 39.665 82.4845 39.665C82.8245 39.665 83.1595 39.605 83.4895 39.485C83.8295 39.365 84.1395 39.2 84.4195 38.99C84.6995 38.78 84.9345 38.54 85.1245 38.27L86.3995 39.185C86.0695 39.625 85.6945 39.99 85.2745 40.28C84.8645 40.56 84.4245 40.77 83.9545 40.91C83.4845 41.04 82.9945 41.105 82.4845 41.105ZM81.0145 36.605C81.3845 36.605 81.7595 36.59 82.1395 36.56C82.5195 36.52 82.8695 36.455 83.1895 36.365C83.5195 36.265 83.7845 36.13 83.9845 35.96C84.1845 35.79 84.2845 35.57 84.2845 35.3C84.2845 35.07 84.2095 34.865 84.0595 34.685C83.9195 34.495 83.7195 34.345 83.4595 34.235C83.1995 34.125 82.8945 34.07 82.5445 34.07C82.0245 34.07 81.5595 34.185 81.1495 34.415C80.7395 34.645 80.4145 34.95 80.1745 35.33C79.9445 35.71 79.8195 36.12 79.7995 36.56C79.9395 36.57 80.1145 36.58 80.3245 36.59C80.5345 36.6 80.7645 36.605 81.0145 36.605ZM87.9316 41V32.735H89.6416V41H87.9316ZM89.1466 36.83L89.6416 34.55C89.8416 33.96 90.1666 33.495 90.6166 33.155C91.0766 32.805 91.5966 32.63 92.1766 32.63V34.4C92.0966 34.38 92.0166 34.37 91.9366 34.37C91.8666 34.36 91.7916 34.355 91.7116 34.355C91.3016 34.355 90.9416 34.45 90.6316 34.64C90.3216 34.82 90.0766 35.095 89.8966 35.465C89.7266 35.825 89.6416 36.28 89.6416 36.83H89.1466ZM93.7471 41V32.735H95.4571V34.46C95.5871 34.11 95.7921 33.8 96.0721 33.53C96.3521 33.25 96.6721 33.03 97.0321 32.87C97.4021 32.71 97.7721 32.63 98.1421 32.63C98.7721 32.63 99.3221 32.77 99.7921 33.05C100.272 33.32 100.642 33.715 100.902 34.235C101.172 34.755 101.307 35.385 101.307 36.125V41H99.6121V36.53C99.6121 35.78 99.4221 35.19 99.0421 34.76C98.6621 34.33 98.1621 34.115 97.5421 34.115C97.1421 34.115 96.7821 34.225 96.4621 34.445C96.1521 34.665 95.9071 34.97 95.7271 35.36C95.5471 35.74 95.4571 36.18 95.4571 36.68V41H93.7471Z" fill="#909090"/>
<rect y="49" width="137" height="26" fill="#FC4B02"/>
<path d="M6.65723 67V65.755C7.01723 65.445 7.33223 65.17 7.60223 64.93C7.87223 64.69 8.12223 64.47 8.35223 64.27C8.58223 64.06 8.81223 63.845 9.04223 63.625C9.28223 63.405 9.54723 63.155 9.83723 62.875C10.1372 62.585 10.4172 62.29 10.6772 61.99C10.9372 61.69 11.1622 61.39 11.3522 61.09C11.5422 60.78 11.6922 60.47 11.8022 60.16C11.9122 59.85 11.9672 59.545 11.9672 59.245C11.9672 58.645 11.8222 58.17 11.5322 57.82C11.2522 57.46 10.8022 57.285 10.1822 57.295C9.76223 57.295 9.40723 57.4 9.11723 57.61C8.83723 57.82 8.62223 58.1 8.47223 58.45C8.32223 58.8 8.22723 59.195 8.18723 59.635L6.65723 59.395C6.67723 58.705 6.84223 58.095 7.15223 57.565C7.47223 57.035 7.89223 56.62 8.41223 56.32C8.94223 56.02 9.52723 55.87 10.1672 55.87C10.8972 55.87 11.5222 56.005 12.0422 56.275C12.5622 56.545 12.9572 56.93 13.2272 57.43C13.5072 57.92 13.6472 58.5 13.6472 59.17C13.6472 59.68 13.5572 60.175 13.3772 60.655C13.2072 61.125 12.9722 61.58 12.6722 62.02C12.3722 62.45 12.0322 62.87 11.6522 63.28C11.2722 63.69 10.8672 64.085 10.4372 64.465C10.0172 64.845 9.60223 65.215 9.19223 65.575H13.9472V67H6.65723ZM19.3498 67.105C18.4298 67.105 17.6798 66.855 17.0998 66.355C16.5298 65.845 16.1098 65.165 15.8398 64.315C15.5798 63.455 15.4498 62.5 15.4498 61.45C15.4498 60.41 15.5798 59.47 15.8398 58.63C16.1098 57.78 16.5298 57.11 17.0998 56.62C17.6798 56.12 18.4298 55.87 19.3498 55.87C20.2698 55.87 21.0148 56.12 21.5848 56.62C22.1648 57.11 22.5848 57.78 22.8448 58.63C23.1148 59.47 23.2498 60.41 23.2498 61.45C23.2498 62.5 23.1148 63.455 22.8448 64.315C22.5848 65.165 22.1648 65.845 21.5848 66.355C21.0148 66.855 20.2698 67.105 19.3498 67.105ZM19.3498 65.545C19.9198 65.545 20.3648 65.355 20.6848 64.975C21.0048 64.585 21.2298 64.08 21.3598 63.46C21.4998 62.83 21.5698 62.16 21.5698 61.45C21.5698 60.94 21.5298 60.445 21.4498 59.965C21.3798 59.485 21.2598 59.055 21.0898 58.675C20.9198 58.295 20.6898 57.995 20.3998 57.775C20.1198 57.545 19.7698 57.43 19.3498 57.43C18.9298 57.43 18.5748 57.545 18.2848 57.775C18.0048 57.995 17.7798 58.295 17.6098 58.675C17.4398 59.055 17.3148 59.485 17.2348 59.965C17.1648 60.445 17.1298 60.94 17.1298 61.45C17.1298 62.16 17.1948 62.83 17.3248 63.46C17.4648 64.08 17.6948 64.585 18.0148 64.975C18.3448 65.355 18.7898 65.545 19.3498 65.545ZM24.6162 67V65.755C24.9762 65.445 25.2912 65.17 25.5612 64.93C25.8312 64.69 26.0812 64.47 26.3112 64.27C26.5412 64.06 26.7712 63.845 27.0012 63.625C27.2412 63.405 27.5062 63.155 27.7962 62.875C28.0962 62.585 28.3762 62.29 28.6362 61.99C28.8962 61.69 29.1212 61.39 29.3112 61.09C29.5012 60.78 29.6512 60.47 29.7612 60.16C29.8712 59.85 29.9262 59.545 29.9262 59.245C29.9262 58.645 29.7812 58.17 29.4912 57.82C29.2112 57.46 28.7612 57.285 28.1412 57.295C27.7212 57.295 27.3662 57.4 27.0762 57.61C26.7962 57.82 26.5812 58.1 26.4312 58.45C26.2812 58.8 26.1862 59.195 26.1462 59.635L24.6162 59.395C24.6362 58.705 24.8012 58.095 25.1112 57.565C25.4312 57.035 25.8512 56.62 26.3712 56.32C26.9012 56.02 27.4862 55.87 28.1262 55.87C28.8562 55.87 29.4812 56.005 30.0012 56.275C30.5212 56.545 30.9162 56.93 31.1862 57.43C31.4662 57.92 31.6062 58.5 31.6062 59.17C31.6062 59.68 31.5162 60.175 31.3362 60.655C31.1662 61.125 30.9312 61.58 30.6312 62.02C30.3312 62.45 29.9912 62.87 29.6112 63.28C29.2312 63.69 28.8262 64.085 28.3962 64.465C27.9762 64.845 27.5612 65.215 27.1512 65.575H31.9062V67H24.6162ZM38.6288 67V64.585H33.1988V63.295L38.2388 56.05H40.3088V63.1H41.7038V64.585H40.3088V67H38.6288ZM35.1638 63.1H38.7038V57.79L35.1638 63.1ZM50.7672 67.105C50.0772 67.105 49.4572 66.975 48.9072 66.715C48.3672 66.445 47.9272 66.08 47.5872 65.62C47.2572 65.16 47.0572 64.63 46.9872 64.03L48.7872 63.7C48.8972 64.3 49.1272 64.77 49.4772 65.11C49.8272 65.45 50.2572 65.62 50.7672 65.62C51.3672 65.62 51.8272 65.485 52.1472 65.215C52.4772 64.945 52.6422 64.59 52.6422 64.15C52.6422 63.79 52.5422 63.505 52.3422 63.295C52.1422 63.085 51.8772 62.915 51.5472 62.785C51.2172 62.655 50.8572 62.545 50.4672 62.455C50.0772 62.355 49.6822 62.245 49.2822 62.125C48.8922 61.995 48.5322 61.825 48.2022 61.615C47.8722 61.405 47.6072 61.13 47.4072 60.79C47.2072 60.44 47.1072 59.99 47.1072 59.44C47.1072 58.83 47.2572 58.305 47.5572 57.865C47.8572 57.415 48.2772 57.07 48.8172 56.83C49.3572 56.59 49.9822 56.47 50.6922 56.47C51.2822 56.47 51.8322 56.59 52.3422 56.83C52.8522 57.07 53.2722 57.39 53.6022 57.79C53.9322 58.19 54.1222 58.635 54.1722 59.125L52.4172 59.575C52.3172 59.055 52.1072 58.65 51.7872 58.36C51.4672 58.07 51.0722 57.925 50.6022 57.925C50.2722 57.925 49.9722 57.98 49.7022 58.09C49.4422 58.19 49.2322 58.345 49.0722 58.555C48.9222 58.765 48.8472 59.04 48.8472 59.38C48.8472 59.71 48.9472 59.98 49.1472 60.19C49.3472 60.39 49.6122 60.555 49.9422 60.685C50.2722 60.805 50.6322 60.915 51.0222 61.015C51.4122 61.115 51.8022 61.23 52.1922 61.36C52.5822 61.49 52.9422 61.665 53.2722 61.885C53.6022 62.095 53.8672 62.375 54.0672 62.725C54.2672 63.075 54.3672 63.52 54.3672 64.06C54.3672 64.58 54.2272 65.075 53.9472 65.545C53.6772 66.005 53.2722 66.38 52.7322 66.67C52.2022 66.96 51.5472 67.105 50.7672 67.105ZM60.2375 67.105C59.5675 67.105 58.9575 67 58.4075 66.79C57.8675 66.58 57.4025 66.285 57.0125 65.905C56.6325 65.525 56.3375 65.085 56.1275 64.585C55.9275 64.075 55.8275 63.52 55.8275 62.92C55.8275 62.27 55.9425 61.685 56.1725 61.165C56.4125 60.635 56.7325 60.18 57.1325 59.8C57.5425 59.42 58.0125 59.13 58.5425 58.93C59.0725 58.73 59.6275 58.63 60.2075 58.63C60.7275 58.63 61.2025 58.7 61.6325 58.84C62.0625 58.98 62.4325 59.175 62.7425 59.425C63.0625 59.675 63.3075 59.965 63.4775 60.295C63.6475 60.625 63.7325 60.98 63.7325 61.36C63.7325 61.89 63.5775 62.33 63.2675 62.68C62.9575 63.03 62.5525 63.305 62.0525 63.505C61.5525 63.705 61.0025 63.84 60.4025 63.91C59.8025 63.98 59.2075 64 58.6175 63.97C58.5175 63.96 58.3925 63.955 58.2425 63.955C58.0925 63.945 57.9575 63.94 57.8375 63.94C57.7275 63.93 57.6675 63.925 57.6575 63.925C57.7275 64.255 57.8825 64.555 58.1225 64.825C58.3725 65.085 58.6825 65.29 59.0525 65.44C59.4225 65.59 59.8175 65.665 60.2375 65.665C60.5775 65.665 60.9125 65.605 61.2425 65.485C61.5825 65.365 61.8925 65.2 62.1725 64.99C62.4525 64.78 62.6875 64.54 62.8775 64.27L64.1525 65.185C63.8225 65.625 63.4475 65.99 63.0275 66.28C62.6175 66.56 62.1775 66.77 61.7075 66.91C61.2375 67.04 60.7475 67.105 60.2375 67.105ZM58.7675 62.605C59.1375 62.605 59.5125 62.59 59.8925 62.56C60.2725 62.52 60.6225 62.455 60.9425 62.365C61.2725 62.265 61.5375 62.13 61.7375 61.96C61.9375 61.79 62.0375 61.57 62.0375 61.3C62.0375 61.07 61.9625 60.865 61.8125 60.685C61.6725 60.495 61.4725 60.345 61.2125 60.235C60.9525 60.125 60.6475 60.07 60.2975 60.07C59.7775 60.07 59.3125 60.185 58.9025 60.415C58.4925 60.645 58.1675 60.95 57.9275 61.33C57.6975 61.71 57.5725 62.12 57.5525 62.56C57.6925 62.57 57.8675 62.58 58.0775 62.59C58.2875 62.6 58.5175 62.605 58.7675 62.605ZM70.3046 67.105C69.6346 67.105 69.0396 66.935 68.5196 66.595C68.0096 66.255 67.6396 65.79 67.4096 65.2V70.93H65.6846V58.735H67.4096V60.52C67.6396 59.93 68.0096 59.47 68.5196 59.14C69.0396 58.8 69.6346 58.63 70.3046 58.63C71.0246 58.63 71.6746 58.805 72.2546 59.155C72.8446 59.505 73.3096 60 73.6496 60.64C73.9996 61.27 74.1746 62.01 74.1746 62.86C74.1746 63.71 73.9996 64.455 73.6496 65.095C73.3096 65.725 72.8446 66.22 72.2546 66.58C71.6746 66.93 71.0246 67.105 70.3046 67.105ZM69.9146 65.62C70.3446 65.62 70.7496 65.515 71.1296 65.305C71.5096 65.095 71.8196 64.785 72.0596 64.375C72.2996 63.955 72.4196 63.45 72.4196 62.86C72.4196 62.26 72.2996 61.76 72.0596 61.36C71.8196 60.95 71.5096 60.64 71.1296 60.43C70.7496 60.22 70.3446 60.115 69.9146 60.115C69.4946 60.115 69.0896 60.22 68.6996 60.43C68.3196 60.64 68.0096 60.95 67.7696 61.36C67.5296 61.76 67.4096 62.26 67.4096 62.86C67.4096 63.45 67.5296 63.955 67.7696 64.375C68.0096 64.785 68.3196 65.095 68.6996 65.305C69.0896 65.515 69.4946 65.62 69.9146 65.62ZM78.6402 67.105C78.0102 67.105 77.4852 66.89 77.0652 66.46C76.6452 66.03 76.4352 65.445 76.4352 64.705V60.13H75.1602V58.735H80.1702V60.13H78.1602V64.81C78.1602 65.09 78.2302 65.29 78.3702 65.41C78.5202 65.53 78.6802 65.59 78.8502 65.59C79.0002 65.59 79.1352 65.565 79.2552 65.515C79.3752 65.465 79.4902 65.385 79.6002 65.275L80.4852 66.34C80.2052 66.61 79.9202 66.805 79.6302 66.925C79.3402 67.045 79.0102 67.105 78.6402 67.105ZM75.7752 59.38V58.735C75.9852 58.735 76.1452 58.675 76.2552 58.555C76.3752 58.435 76.4352 58.27 76.4352 58.06V56.68H78.1602V57.775C78.1602 57.915 78.1252 58.055 78.0552 58.195C77.9852 58.325 77.8852 58.44 77.7552 58.54C77.6352 58.63 77.5002 58.695 77.3502 58.735L75.7752 59.38ZM85.755 67.105C85.085 67.105 84.475 67 83.925 66.79C83.385 66.58 82.92 66.285 82.53 65.905C82.15 65.525 81.855 65.085 81.645 64.585C81.445 64.075 81.345 63.52 81.345 62.92C81.345 62.27 81.46 61.685 81.69 61.165C81.93 60.635 82.25 60.18 82.65 59.8C83.06 59.42 83.53 59.13 84.06 58.93C84.59 58.73 85.145 58.63 85.725 58.63C86.245 58.63 86.72 58.7 87.15 58.84C87.58 58.98 87.95 59.175 88.26 59.425C88.58 59.675 88.825 59.965 88.995 60.295C89.165 60.625 89.25 60.98 89.25 61.36C89.25 61.89 89.095 62.33 88.785 62.68C88.475 63.03 88.07 63.305 87.57 63.505C87.07 63.705 86.52 63.84 85.92 63.91C85.32 63.98 84.725 64 84.135 63.97C84.035 63.96 83.91 63.955 83.76 63.955C83.61 63.945 83.475 63.94 83.355 63.94C83.245 63.93 83.185 63.925 83.175 63.925C83.245 64.255 83.4 64.555 83.64 64.825C83.89 65.085 84.2 65.29 84.57 65.44C84.94 65.59 85.335 65.665 85.755 65.665C86.095 65.665 86.43 65.605 86.76 65.485C87.1 65.365 87.41 65.2 87.69 64.99C87.97 64.78 88.205 64.54 88.395 64.27L89.67 65.185C89.34 65.625 88.965 65.99 88.545 66.28C88.135 66.56 87.695 66.77 87.225 66.91C86.755 67.04 86.265 67.105 85.755 67.105ZM84.285 62.605C84.655 62.605 85.03 62.59 85.41 62.56C85.79 62.52 86.14 62.455 86.46 62.365C86.79 62.265 87.055 62.13 87.255 61.96C87.455 61.79 87.555 61.57 87.555 61.3C87.555 61.07 87.48 60.865 87.33 60.685C87.19 60.495 86.99 60.345 86.73 60.235C86.47 60.125 86.165 60.07 85.815 60.07C85.295 60.07 84.83 60.185 84.42 60.415C84.01 60.645 83.685 60.95 83.445 61.33C83.215 61.71 83.09 62.12 83.07 62.56C83.21 62.57 83.385 62.58 83.595 62.59C83.805 62.6 84.035 62.605 84.285 62.605ZM91.2021 67V58.735H92.9121V60.46C93.0421 60.11 93.2421 59.8 93.5121 59.53C93.7921 59.25 94.1071 59.03 94.4571 58.87C94.8171 58.71 95.1721 58.63 95.5221 58.63C96.3021 58.63 96.9571 58.835 97.4871 59.245C98.0171 59.655 98.3471 60.2 98.4771 60.88C98.5971 60.45 98.7971 60.07 99.0771 59.74C99.3571 59.4 99.6921 59.13 100.082 58.93C100.482 58.73 100.912 58.63 101.372 58.63C102.342 58.63 103.122 58.93 103.712 59.53C104.312 60.12 104.612 60.995 104.612 62.155V67H102.917V62.56C102.917 61.8 102.727 61.205 102.347 60.775C101.967 60.335 101.467 60.115 100.847 60.115C100.217 60.115 99.7121 60.36 99.3321 60.85C98.9521 61.34 98.7621 61.96 98.7621 62.71V67H97.0671V62.56C97.0671 61.8 96.8771 61.205 96.4971 60.775C96.1171 60.335 95.6171 60.115 94.9971 60.115C94.5771 60.115 94.2121 60.23 93.9021 60.46C93.5921 60.68 93.3471 60.985 93.1671 61.375C92.9971 61.765 92.9121 62.21 92.9121 62.71V67H91.2021ZM111.408 67.105C110.738 67.105 110.143 66.935 109.623 66.595C109.113 66.255 108.743 65.79 108.513 65.2V66.04C108.513 66.32 108.423 66.55 108.243 66.73C108.073 66.91 107.843 67 107.553 67H106.788V55.9H108.513V60.52C108.743 59.93 109.113 59.47 109.623 59.14C110.143 58.8 110.738 58.63 111.408 58.63C112.128 58.63 112.778 58.805 113.358 59.155C113.948 59.505 114.413 60 114.753 60.64C115.103 61.27 115.278 62.01 115.278 62.86C115.278 63.71 115.103 64.455 114.753 65.095C114.413 65.725 113.948 66.22 113.358 66.58C112.778 66.93 112.128 67.105 111.408 67.105ZM111.018 65.62C111.448 65.62 111.853 65.515 112.233 65.305C112.613 65.095 112.923 64.785 113.163 64.375C113.403 63.955 113.523 63.45 113.523 62.86C113.523 62.26 113.403 61.76 113.163 61.36C112.923 60.95 112.613 60.64 112.233 60.43C111.853 60.22 111.448 60.115 111.018 60.115C110.598 60.115 110.193 60.22 109.803 60.43C109.423 60.64 109.113 60.95 108.873 61.36C108.633 61.76 108.513 62.26 108.513 62.86C108.513 63.45 108.633 63.955 108.873 64.375C109.113 64.785 109.423 65.095 109.803 65.305C110.193 65.515 110.598 65.62 111.018 65.62ZM120.955 67.105C120.285 67.105 119.675 67 119.125 66.79C118.585 66.58 118.12 66.285 117.73 65.905C117.35 65.525 117.055 65.085 116.845 64.585C116.645 64.075 116.545 63.52 116.545 62.92C116.545 62.27 116.66 61.685 116.89 61.165C117.13 60.635 117.45 60.18 117.85 59.8C118.26 59.42 118.73 59.13 119.26 58.93C119.79 58.73 120.345 58.63 120.925 58.63C121.445 58.63 121.92 58.7 122.35 58.84C122.78 58.98 123.15 59.175 123.46 59.425C123.78 59.675 124.025 59.965 124.195 60.295C124.365 60.625 124.45 60.98 124.45 61.36C124.45 61.89 124.295 62.33 123.985 62.68C123.675 63.03 123.27 63.305 122.77 63.505C122.27 63.705 121.72 63.84 121.12 63.91C120.52 63.98 119.925 64 119.335 63.97C119.235 63.96 119.11 63.955 118.96 63.955C118.81 63.945 118.675 63.94 118.555 63.94C118.445 63.93 118.385 63.925 118.375 63.925C118.445 64.255 118.6 64.555 118.84 64.825C119.09 65.085 119.4 65.29 119.77 65.44C120.14 65.59 120.535 65.665 120.955 65.665C121.295 65.665 121.63 65.605 121.96 65.485C122.3 65.365 122.61 65.2 122.89 64.99C123.17 64.78 123.405 64.54 123.595 64.27L124.87 65.185C124.54 65.625 124.165 65.99 123.745 66.28C123.335 66.56 122.895 66.77 122.425 66.91C121.955 67.04 121.465 67.105 120.955 67.105ZM119.485 62.605C119.855 62.605 120.23 62.59 120.61 62.56C120.99 62.52 121.34 62.455 121.66 62.365C121.99 62.265 122.255 62.13 122.455 61.96C122.655 61.79 122.755 61.57 122.755 61.3C122.755 61.07 122.68 60.865 122.53 60.685C122.39 60.495 122.19 60.345 121.93 60.235C121.67 60.125 121.365 60.07 121.015 60.07C120.495 60.07 120.03 60.185 119.62 60.415C119.21 60.645 118.885 60.95 118.645 61.33C118.415 61.71 118.29 62.12 118.27 62.56C118.41 62.57 118.585 62.58 118.795 62.59C119.005 62.6 119.235 62.605 119.485 62.605ZM126.402 67V58.735H128.112V67H126.402ZM127.617 62.83L128.112 60.55C128.312 59.96 128.637 59.495 129.087 59.155C129.547 58.805 130.067 58.63 130.647 58.63V60.4C130.567 60.38 130.487 60.37 130.407 60.37C130.337 60.36 130.262 60.355 130.182 60.355C129.772 60.355 129.412 60.45 129.102 60.64C128.792 60.82 128.547 61.095 128.367 61.465C128.197 61.825 128.112 62.28 128.112 62.83H127.617Z" fill="white"/>
<path d="M9.408 9.608C9.29067 9.256 9.13067 8.94133 8.928 8.664C8.72533 8.38667 8.48533 8.152 8.208 7.96C7.93067 7.768 7.62667 7.624 7.296 7.528C6.96533 7.42133 6.608 7.368 6.224 7.368C5.49867 7.368 4.85333 7.53867 4.288 7.88C3.72267 8.22133 3.27467 8.696 2.944 9.304C2.624 9.912 2.464 10.6213 2.464 11.432C2.464 12.2427 2.608 12.9573 2.896 13.576C3.19467 14.184 3.632 14.664 4.208 15.016C4.784 15.3573 5.48267 15.528 6.304 15.528C6.816 15.528 7.28 15.4267 7.696 15.224C8.12267 15.0213 8.49067 14.7547 8.8 14.424C9.10933 14.0933 9.34933 13.736 9.52 13.352C9.70133 12.9573 9.808 12.5787 9.84 12.216H5.856V10.728H11.824V17H10.16V13.912L10.32 13.752C10.32 13.9227 10.2667 14.1467 10.16 14.424C10.0533 14.7013 9.89333 14.9947 9.68 15.304C9.47733 15.6133 9.21067 15.9067 8.88 16.184C8.54933 16.4507 8.16 16.6747 7.712 16.856C7.27467 17.0267 6.77333 17.112 6.208 17.112C5.45067 17.112 4.73067 16.9733 4.048 16.696C3.376 16.4187 2.77867 16.0293 2.256 15.528C1.744 15.016 1.33867 14.4133 1.04 13.72C0.741333 13.0267 0.592 12.264 0.592 11.432C0.592 10.6 0.736 9.83733 1.024 9.144C1.32267 8.45067 1.73333 7.85333 2.256 7.352C2.77867 6.84 3.38133 6.45067 4.064 6.184C4.75733 5.90667 5.49333 5.768 6.272 5.768C7.47733 5.768 8.512 6.05067 9.376 6.616C10.2507 7.17067 10.8693 7.94933 11.232 8.952L9.408 9.608ZM13.6059 5.88H15.4299V12.968C15.4299 13.832 15.6539 14.472 16.1019 14.888C16.5605 15.304 17.1739 15.512 17.9419 15.512C18.7205 15.512 19.3339 15.304 19.7819 14.888C20.2405 14.472 20.4699 13.832 20.4699 12.968V5.88H22.2939V12.936C22.2939 13.8747 22.0912 14.6533 21.6859 15.272C21.2805 15.8907 20.7472 16.3547 20.0859 16.664C19.4245 16.9627 18.7045 17.112 17.9259 17.112C17.1472 17.112 16.4272 16.9627 15.7659 16.664C15.1152 16.3547 14.5925 15.8907 14.1979 15.272C13.8032 14.6533 13.6059 13.8747 13.6059 12.936V5.88ZM32.3328 5.88H34.2528L30.0768 17H27.9648L23.7728 5.88H25.7248L29.0208 15.128L32.3328 5.88ZM35.6181 17V15.512H36.8821V7.368H35.6181V5.88H39.9701V7.368H38.7061V15.512H39.9701V17H35.6181Z" fill="black"/>
<path d="M0.585 148.575H7.86V149.97H5.085V159H3.375V149.97H0.585V148.575ZM12.172 159.105C11.502 159.105 10.892 159 10.342 158.79C9.80203 158.58 9.33703 158.285 8.94703 157.905C8.56703 157.525 8.27203 157.085 8.06203 156.585C7.86203 156.075 7.76203 155.52 7.76203 154.92C7.76203 154.27 7.87703 153.685 8.10703 153.165C8.34703 152.635 8.66703 152.18 9.06703 151.8C9.47703 151.42 9.94703 151.13 10.477 150.93C11.007 150.73 11.562 150.63 12.142 150.63C12.662 150.63 13.137 150.7 13.567 150.84C13.997 150.98 14.367 151.175 14.677 151.425C14.997 151.675 15.242 151.965 15.412 152.295C15.582 152.625 15.667 152.98 15.667 153.36C15.667 153.89 15.512 154.33 15.202 154.68C14.892 155.03 14.487 155.305 13.987 155.505C13.487 155.705 12.937 155.84 12.337 155.91C11.737 155.98 11.142 156 10.552 155.97C10.452 155.96 10.327 155.955 10.177 155.955C10.027 155.945 9.89203 155.94 9.77203 155.94C9.66203 155.93 9.60203 155.925 9.59203 155.925C9.66203 156.255 9.81703 156.555 10.057 156.825C10.307 157.085 10.617 157.29 10.987 157.44C11.357 157.59 11.752 157.665 12.172 157.665C12.512 157.665 12.847 157.605 13.177 157.485C13.517 157.365 13.827 157.2 14.107 156.99C14.387 156.78 14.622 156.54 14.812 156.27L16.087 157.185C15.757 157.625 15.382 157.99 14.962 158.28C14.552 158.56 14.112 158.77 13.642 158.91C13.172 159.04 12.682 159.105 12.172 159.105ZM10.702 154.605C11.072 154.605 11.447 154.59 11.827 154.56C12.207 154.52 12.557 154.455 12.877 154.365C13.207 154.265 13.472 154.13 13.672 153.96C13.872 153.79 13.972 153.57 13.972 153.3C13.972 153.07 13.897 152.865 13.747 152.685C13.607 152.495 13.407 152.345 13.147 152.235C12.887 152.125 12.582 152.07 12.232 152.07C11.712 152.07 11.247 152.185 10.837 152.415C10.427 152.645 10.102 152.95 9.86203 153.33C9.63203 153.71 9.50703 154.12 9.48703 154.56C9.62703 154.57 9.80203 154.58 10.012 154.59C10.222 154.6 10.452 154.605 10.702 154.605ZM20.9191 159.105C20.1991 159.105 19.5441 158.93 18.9541 158.58C18.3741 158.22 17.9091 157.725 17.5591 157.095C17.2191 156.455 17.0491 155.71 17.0491 154.86C17.0491 154.01 17.2191 153.27 17.5591 152.64C17.9091 152 18.3741 151.505 18.9541 151.155C19.5441 150.805 20.1991 150.63 20.9191 150.63C21.5991 150.63 22.1941 150.8 22.7041 151.14C23.2141 151.47 23.5841 151.93 23.8141 152.52V150.735H25.5391V159H24.7741C24.4941 159 24.2641 158.91 24.0841 158.73C23.9041 158.55 23.8141 158.32 23.8141 158.04V157.2C23.5841 157.79 23.2141 158.255 22.7041 158.595C22.1941 158.935 21.5991 159.105 20.9191 159.105ZM21.3091 157.62C21.7391 157.62 22.1441 157.515 22.5241 157.305C22.9041 157.095 23.2141 156.785 23.4541 156.375C23.6941 155.955 23.8141 155.45 23.8141 154.86C23.8141 154.26 23.6941 153.76 23.4541 153.36C23.2141 152.95 22.9041 152.64 22.5241 152.43C22.1441 152.22 21.7391 152.115 21.3091 152.115C20.8891 152.115 20.4841 152.22 20.0941 152.43C19.7141 152.64 19.4041 152.95 19.1641 153.36C18.9241 153.76 18.8041 154.26 18.8041 154.86C18.8041 155.45 18.9241 155.955 19.1641 156.375C19.4041 156.785 19.7141 157.095 20.0941 157.305C20.4841 157.515 20.8891 157.62 21.3091 157.62ZM31.2652 159.105C30.4752 159.105 29.7752 158.93 29.1652 158.58C28.5552 158.23 28.0752 157.735 27.7252 157.095C27.3852 156.455 27.2152 155.71 27.2152 154.86C27.2152 154 27.3852 153.255 27.7252 152.625C28.0752 151.995 28.5552 151.505 29.1652 151.155C29.7752 150.805 30.4752 150.63 31.2652 150.63C31.7452 150.63 32.1802 150.68 32.5702 150.78C32.9702 150.88 33.3202 151.035 33.6202 151.245C33.9302 151.445 34.1952 151.705 34.4152 152.025C34.6452 152.335 34.8352 152.705 34.9852 153.135L33.3502 153.66C33.1602 153.13 32.8902 152.735 32.5402 152.475C32.1902 152.205 31.7652 152.07 31.2652 152.07C30.8052 152.07 30.4002 152.18 30.0502 152.4C29.7102 152.61 29.4452 152.925 29.2552 153.345C29.0652 153.755 28.9702 154.26 28.9702 154.86C28.9702 155.45 29.0652 155.955 29.2552 156.375C29.4452 156.795 29.7102 157.115 30.0502 157.335C30.4002 157.555 30.8052 157.665 31.2652 157.665C31.8452 157.665 32.3202 157.51 32.6902 157.2C33.0602 156.88 33.3252 156.45 33.4852 155.91L35.0752 156.285C34.9252 156.805 34.6852 157.28 34.3552 157.71C34.0352 158.14 33.6202 158.48 33.1102 158.73C32.6102 158.98 31.9952 159.105 31.2652 159.105ZM36.7793 159V147.9H38.4893V152.46C38.6193 152.11 38.8243 151.8 39.1043 151.53C39.3843 151.25 39.7043 151.03 40.0643 150.87C40.4343 150.71 40.8043 150.63 41.1743 150.63C41.8043 150.63 42.3543 150.77 42.8243 151.05C43.3043 151.32 43.6743 151.715 43.9343 152.235C44.2043 152.755 44.3393 153.385 44.3393 154.125V159H42.6443V154.53C42.6443 153.78 42.4543 153.19 42.0743 152.76C41.6943 152.33 41.1943 152.115 40.5743 152.115C40.1743 152.115 39.8143 152.225 39.4943 152.445C39.1843 152.665 38.9393 152.97 38.7593 153.36C38.5793 153.74 38.4893 154.18 38.4893 154.68V159H36.7793ZM50.3605 159.105C49.6905 159.105 49.0805 159 48.5305 158.79C47.9905 158.58 47.5255 158.285 47.1355 157.905C46.7555 157.525 46.4605 157.085 46.2505 156.585C46.0505 156.075 45.9505 155.52 45.9505 154.92C45.9505 154.27 46.0655 153.685 46.2955 153.165C46.5355 152.635 46.8555 152.18 47.2555 151.8C47.6655 151.42 48.1355 151.13 48.6655 150.93C49.1955 150.73 49.7505 150.63 50.3305 150.63C50.8505 150.63 51.3255 150.7 51.7555 150.84C52.1855 150.98 52.5555 151.175 52.8655 151.425C53.1855 151.675 53.4305 151.965 53.6005 152.295C53.7705 152.625 53.8555 152.98 53.8555 153.36C53.8555 153.89 53.7005 154.33 53.3905 154.68C53.0805 155.03 52.6755 155.305 52.1755 155.505C51.6755 155.705 51.1255 155.84 50.5255 155.91C49.9255 155.98 49.3305 156 48.7405 155.97C48.6405 155.96 48.5155 155.955 48.3655 155.955C48.2155 155.945 48.0805 155.94 47.9605 155.94C47.8505 155.93 47.7905 155.925 47.7805 155.925C47.8505 156.255 48.0055 156.555 48.2455 156.825C48.4955 157.085 48.8055 157.29 49.1755 157.44C49.5455 157.59 49.9405 157.665 50.3605 157.665C50.7005 157.665 51.0355 157.605 51.3655 157.485C51.7055 157.365 52.0155 157.2 52.2955 156.99C52.5755 156.78 52.8105 156.54 53.0005 156.27L54.2755 157.185C53.9455 157.625 53.5705 157.99 53.1505 158.28C52.7405 158.56 52.3005 158.77 51.8305 158.91C51.3605 159.04 50.8705 159.105 50.3605 159.105ZM48.8905 154.605C49.2605 154.605 49.6355 154.59 50.0155 154.56C50.3955 154.52 50.7455 154.455 51.0655 154.365C51.3955 154.265 51.6605 154.13 51.8605 153.96C52.0605 153.79 52.1605 153.57 52.1605 153.3C52.1605 153.07 52.0855 152.865 51.9355 152.685C51.7955 152.495 51.5955 152.345 51.3355 152.235C51.0755 152.125 50.7705 152.07 50.4205 152.07C49.9005 152.07 49.4355 152.185 49.0255 152.415C48.6155 152.645 48.2905 152.95 48.0505 153.33C47.8205 153.71 47.6955 154.12 47.6755 154.56C47.8155 154.57 47.9905 154.58 48.2005 154.59C48.4105 154.6 48.6405 154.605 48.8905 154.605ZM55.8076 159V150.735H57.5176V159H55.8076ZM57.0226 154.83L57.5176 152.55C57.7176 151.96 58.0426 151.495 58.4926 151.155C58.9526 150.805 59.4726 150.63 60.0526 150.63V152.4C59.9726 152.38 59.8926 152.37 59.8126 152.37C59.7426 152.36 59.6676 152.355 59.5876 152.355C59.1776 152.355 58.8176 152.45 58.5076 152.64C58.1976 152.82 57.9526 153.095 57.7726 153.465C57.6026 153.825 57.5176 154.28 57.5176 154.83H57.0226ZM64.488 159.105C63.908 159.105 63.388 159.005 62.928 158.805C62.468 158.595 62.088 158.315 61.788 157.965C61.488 157.615 61.283 157.235 61.173 156.825L62.808 156.465C62.908 156.835 63.108 157.13 63.408 157.35C63.718 157.56 64.068 157.665 64.458 157.665C64.958 157.665 65.333 157.575 65.583 157.395C65.843 157.205 65.973 156.97 65.973 156.69C65.973 156.42 65.858 156.21 65.628 156.06C65.398 155.91 65.098 155.785 64.728 155.685C64.368 155.585 63.983 155.48 63.573 155.37C63.163 155.26 62.773 155.115 62.403 154.935C62.043 154.755 61.748 154.515 61.518 154.215C61.288 153.905 61.173 153.5 61.173 153C61.173 152.56 61.303 152.16 61.563 151.8C61.823 151.44 62.188 151.155 62.658 150.945C63.138 150.735 63.703 150.63 64.353 150.63C64.913 150.63 65.408 150.72 65.838 150.9C66.268 151.08 66.623 151.335 66.903 151.665C67.183 151.985 67.373 152.37 67.473 152.82L65.838 153.24C65.738 152.86 65.563 152.57 65.313 152.37C65.063 152.17 64.723 152.07 64.293 152.07C63.833 152.07 63.483 152.155 63.243 152.325C63.013 152.485 62.898 152.705 62.898 152.985C62.898 153.255 63.013 153.47 63.243 153.63C63.473 153.78 63.768 153.91 64.128 154.02C64.488 154.12 64.868 154.225 65.268 154.335C65.678 154.445 66.063 154.59 66.423 154.77C66.783 154.94 67.078 155.18 67.308 155.49C67.538 155.79 67.653 156.185 67.653 156.675C67.653 157.105 67.523 157.505 67.263 157.875C67.013 158.245 66.648 158.545 66.168 158.775C65.698 158.995 65.138 159.105 64.488 159.105ZM78.5004 148.575L82.2354 159H80.4354L77.1054 149.49H77.9004L74.5704 159H72.7854L76.5204 148.575H78.5004ZM74.7804 155.475H80.1354L80.5854 156.87H74.3454L74.7804 155.475ZM86.4314 159.105C85.8514 159.105 85.3314 159.005 84.8714 158.805C84.4114 158.595 84.0314 158.315 83.7314 157.965C83.4314 157.615 83.2264 157.235 83.1164 156.825L84.7514 156.465C84.8514 156.835 85.0514 157.13 85.3514 157.35C85.6614 157.56 86.0114 157.665 86.4014 157.665C86.9014 157.665 87.2764 157.575 87.5264 157.395C87.7864 157.205 87.9164 156.97 87.9164 156.69C87.9164 156.42 87.8014 156.21 87.5714 156.06C87.3414 155.91 87.0414 155.785 86.6714 155.685C86.3114 155.585 85.9264 155.48 85.5164 155.37C85.1064 155.26 84.7164 155.115 84.3464 154.935C83.9864 154.755 83.6914 154.515 83.4614 154.215C83.2314 153.905 83.1164 153.5 83.1164 153C83.1164 152.56 83.2464 152.16 83.5064 151.8C83.7664 151.44 84.1314 151.155 84.6014 150.945C85.0814 150.735 85.6464 150.63 86.2964 150.63C86.8564 150.63 87.3514 150.72 87.7814 150.9C88.2114 151.08 88.5664 151.335 88.8464 151.665C89.1264 151.985 89.3164 152.37 89.4164 152.82L87.7814 153.24C87.6814 152.86 87.5064 152.57 87.2564 152.37C87.0064 152.17 86.6664 152.07 86.2364 152.07C85.7764 152.07 85.4264 152.155 85.1864 152.325C84.9564 152.485 84.8414 152.705 84.8414 152.985C84.8414 153.255 84.9564 153.47 85.1864 153.63C85.4164 153.78 85.7114 153.91 86.0714 154.02C86.4314 154.12 86.8114 154.225 87.2114 154.335C87.6214 154.445 88.0064 154.59 88.3664 154.77C88.7264 154.94 89.0214 155.18 89.2514 155.49C89.4814 155.79 89.5964 156.185 89.5964 156.675C89.5964 157.105 89.4664 157.505 89.2064 157.875C88.9564 158.245 88.5914 158.545 88.1114 158.775C87.6414 158.995 87.0814 159.105 86.4314 159.105ZM94.3123 159.105C93.7323 159.105 93.2123 159.005 92.7523 158.805C92.2923 158.595 91.9123 158.315 91.6123 157.965C91.3123 157.615 91.1073 157.235 90.9973 156.825L92.6323 156.465C92.7323 156.835 92.9323 157.13 93.2323 157.35C93.5423 157.56 93.8923 157.665 94.2823 157.665C94.7823 157.665 95.1573 157.575 95.4073 157.395C95.6673 157.205 95.7973 156.97 95.7973 156.69C95.7973 156.42 95.6823 156.21 95.4523 156.06C95.2223 155.91 94.9223 155.785 94.5523 155.685C94.1923 155.585 93.8073 155.48 93.3973 155.37C92.9873 155.26 92.5973 155.115 92.2273 154.935C91.8673 154.755 91.5723 154.515 91.3423 154.215C91.1123 153.905 90.9973 153.5 90.9973 153C90.9973 152.56 91.1273 152.16 91.3873 151.8C91.6473 151.44 92.0123 151.155 92.4823 150.945C92.9623 150.735 93.5273 150.63 94.1773 150.63C94.7373 150.63 95.2323 150.72 95.6623 150.9C96.0923 151.08 96.4473 151.335 96.7273 151.665C97.0073 151.985 97.1973 152.37 97.2973 152.82L95.6623 153.24C95.5623 152.86 95.3873 152.57 95.1373 152.37C94.8873 152.17 94.5473 152.07 94.1173 152.07C93.6573 152.07 93.3073 152.155 93.0673 152.325C92.8373 152.485 92.7223 152.705 92.7223 152.985C92.7223 153.255 92.8373 153.47 93.0673 153.63C93.2973 153.78 93.5923 153.91 93.9523 154.02C94.3123 154.12 94.6923 154.225 95.0923 154.335C95.5023 154.445 95.8873 154.59 96.2473 154.77C96.6073 154.94 96.9023 155.18 97.1323 155.49C97.3623 155.79 97.4773 156.185 97.4773 156.675C97.4773 157.105 97.3473 157.505 97.0873 157.875C96.8373 158.245 96.4723 158.545 95.9923 158.775C95.5223 158.995 94.9623 159.105 94.3123 159.105ZM99.3731 159V150.735H101.083V159H99.3731ZM100.243 149.64C99.8831 149.64 99.5781 149.525 99.3281 149.295C99.0781 149.065 98.9531 148.78 98.9531 148.44C98.9531 148.1 99.0781 147.815 99.3281 147.585C99.5781 147.345 99.8831 147.225 100.243 147.225C100.593 147.225 100.893 147.345 101.143 147.585C101.403 147.815 101.533 148.1 101.533 148.44C101.533 148.78 101.403 149.065 101.143 149.295C100.893 149.525 100.593 149.64 100.243 149.64ZM106.28 159.105C105.7 159.105 105.18 159.005 104.72 158.805C104.26 158.595 103.88 158.315 103.58 157.965C103.28 157.615 103.075 157.235 102.965 156.825L104.6 156.465C104.7 156.835 104.9 157.13 105.2 157.35C105.51 157.56 105.86 157.665 106.25 157.665C106.75 157.665 107.125 157.575 107.375 157.395C107.635 157.205 107.765 156.97 107.765 156.69C107.765 156.42 107.65 156.21 107.42 156.06C107.19 155.91 106.89 155.785 106.52 155.685C106.16 155.585 105.775 155.48 105.365 155.37C104.955 155.26 104.565 155.115 104.195 154.935C103.835 154.755 103.54 154.515 103.31 154.215C103.08 153.905 102.965 153.5 102.965 153C102.965 152.56 103.095 152.16 103.355 151.8C103.615 151.44 103.98 151.155 104.45 150.945C104.93 150.735 105.495 150.63 106.145 150.63C106.705 150.63 107.2 150.72 107.63 150.9C108.06 151.08 108.415 151.335 108.695 151.665C108.975 151.985 109.165 152.37 109.265 152.82L107.63 153.24C107.53 152.86 107.355 152.57 107.105 152.37C106.855 152.17 106.515 152.07 106.085 152.07C105.625 152.07 105.275 152.155 105.035 152.325C104.805 152.485 104.69 152.705 104.69 152.985C104.69 153.255 104.805 153.47 105.035 153.63C105.265 153.78 105.56 153.91 105.92 154.02C106.28 154.12 106.66 154.225 107.06 154.335C107.47 154.445 107.855 154.59 108.215 154.77C108.575 154.94 108.87 155.18 109.1 155.49C109.33 155.79 109.445 156.185 109.445 156.675C109.445 157.105 109.315 157.505 109.055 157.875C108.805 158.245 108.44 158.545 107.96 158.775C107.49 158.995 106.93 159.105 106.28 159.105ZM114.071 159.105C113.441 159.105 112.916 158.89 112.496 158.46C112.076 158.03 111.866 157.445 111.866 156.705V152.13H110.591V150.735H115.601V152.13H113.591V156.81C113.591 157.09 113.661 157.29 113.801 157.41C113.951 157.53 114.111 157.59 114.281 157.59C114.431 157.59 114.566 157.565 114.686 157.515C114.806 157.465 114.921 157.385 115.031 157.275L115.916 158.34C115.636 158.61 115.351 158.805 115.061 158.925C114.771 159.045 114.441 159.105 114.071 159.105ZM111.206 151.38V150.735C111.416 150.735 111.576 150.675 111.686 150.555C111.806 150.435 111.866 150.27 111.866 150.06V148.68H113.591V149.775C113.591 149.915 113.556 150.055 113.486 150.195C113.416 150.325 113.316 150.44 113.186 150.54C113.066 150.63 112.931 150.695 112.781 150.735L111.206 151.38ZM120.792 159.105C120.072 159.105 119.417 158.93 118.827 158.58C118.247 158.22 117.782 157.725 117.432 157.095C117.092 156.455 116.922 155.71 116.922 154.86C116.922 154.01 117.092 153.27 117.432 152.64C117.782 152 118.247 151.505 118.827 151.155C119.417 150.805 120.072 150.63 120.792 150.63C121.472 150.63 122.067 150.8 122.577 151.14C123.087 151.47 123.457 151.93 123.687 152.52V150.735H125.412V159H124.647C124.367 159 124.137 158.91 123.957 158.73C123.777 158.55 123.687 158.32 123.687 158.04V157.2C123.457 157.79 123.087 158.255 122.577 158.595C122.067 158.935 121.472 159.105 120.792 159.105ZM121.182 157.62C121.612 157.62 122.017 157.515 122.397 157.305C122.777 157.095 123.087 156.785 123.327 156.375C123.567 155.955 123.687 155.45 123.687 154.86C123.687 154.26 123.567 153.76 123.327 153.36C123.087 152.95 122.777 152.64 122.397 152.43C122.017 152.22 121.612 152.115 121.182 152.115C120.762 152.115 120.357 152.22 119.967 152.43C119.587 152.64 119.277 152.95 119.037 153.36C118.797 153.76 118.677 154.26 118.677 154.86C118.677 155.45 118.797 155.955 119.037 156.375C119.277 156.785 119.587 157.095 119.967 157.305C120.357 157.515 120.762 157.62 121.182 157.62ZM127.658 159V150.735H129.368V152.46C129.498 152.11 129.703 151.8 129.983 151.53C130.263 151.25 130.583 151.03 130.943 150.87C131.313 150.71 131.683 150.63 132.053 150.63C132.683 150.63 133.233 150.77 133.703 151.05C134.183 151.32 134.553 151.715 134.813 152.235C135.083 152.755 135.218 153.385 135.218 154.125V159H133.523V154.53C133.523 153.78 133.333 153.19 132.953 152.76C132.573 152.33 132.073 152.115 131.453 152.115C131.053 152.115 130.693 152.225 130.373 152.445C130.063 152.665 129.818 152.97 129.638 153.36C129.458 153.74 129.368 154.18 129.368 154.68V159H127.658ZM140.174 159.105C139.544 159.105 139.019 158.89 138.599 158.46C138.179 158.03 137.969 157.445 137.969 156.705V152.13H136.694V150.735H141.704V152.13H139.694V156.81C139.694 157.09 139.764 157.29 139.904 157.41C140.054 157.53 140.214 157.59 140.384 157.59C140.534 157.59 140.669 157.565 140.789 157.515C140.909 157.465 141.024 157.385 141.134 157.275L142.019 158.34C141.739 158.61 141.454 158.805 141.164 158.925C140.874 159.045 140.544 159.105 140.174 159.105ZM137.309 151.38V150.735C137.519 150.735 137.679 150.675 137.789 150.555C137.909 150.435 137.969 150.27 137.969 150.06V148.68H139.694V149.775C139.694 149.915 139.659 150.055 139.589 150.195C139.519 150.325 139.419 150.44 139.289 150.54C139.169 150.63 139.034 150.695 138.884 150.735L137.309 151.38Z" fill="#909090"/>
<rect y="167" width="124" height="26" fill="#FC4B02"/>
<path d="M16.126 185V183.755C16.486 183.445 16.801 183.17 17.071 182.93C17.341 182.69 17.591 182.47 17.821 182.27C18.051 182.06 18.281 181.845 18.511 181.625C18.751 181.405 19.016 181.155 19.306 180.875C19.606 180.585 19.886 180.29 20.146 179.99C20.406 179.69 20.631 179.39 20.821 179.09C21.011 178.78 21.161 178.47 21.271 178.16C21.381 177.85 21.436 177.545 21.436 177.245C21.436 176.645 21.291 176.17 21.001 175.82C20.721 175.46 20.271 175.285 19.651 175.295C19.231 175.295 18.876 175.4 18.586 175.61C18.306 175.82 18.091 176.1 17.941 176.45C17.791 176.8 17.696 177.195 17.656 177.635L16.126 177.395C16.146 176.705 16.311 176.095 16.621 175.565C16.941 175.035 17.361 174.62 17.881 174.32C18.411 174.02 18.996 173.87 19.636 173.87C20.366 173.87 20.991 174.005 21.511 174.275C22.031 174.545 22.426 174.93 22.696 175.43C22.976 175.92 23.116 176.5 23.116 177.17C23.116 177.68 23.026 178.175 22.846 178.655C22.676 179.125 22.441 179.58 22.141 180.02C21.841 180.45 21.501 180.87 21.121 181.28C20.741 181.69 20.336 182.085 19.906 182.465C19.486 182.845 19.071 183.215 18.661 183.575H23.416V185H16.126ZM28.8186 185.105C27.8986 185.105 27.1486 184.855 26.5686 184.355C25.9986 183.845 25.5786 183.165 25.3086 182.315C25.0486 181.455 24.9186 180.5 24.9186 179.45C24.9186 178.41 25.0486 177.47 25.3086 176.63C25.5786 175.78 25.9986 175.11 26.5686 174.62C27.1486 174.12 27.8986 173.87 28.8186 173.87C29.7386 173.87 30.4836 174.12 31.0536 174.62C31.6336 175.11 32.0536 175.78 32.3136 176.63C32.5836 177.47 32.7186 178.41 32.7186 179.45C32.7186 180.5 32.5836 181.455 32.3136 182.315C32.0536 183.165 31.6336 183.845 31.0536 184.355C30.4836 184.855 29.7386 185.105 28.8186 185.105ZM28.8186 183.545C29.3886 183.545 29.8336 183.355 30.1536 182.975C30.4736 182.585 30.6986 182.08 30.8286 181.46C30.9686 180.83 31.0386 180.16 31.0386 179.45C31.0386 178.94 30.9986 178.445 30.9186 177.965C30.8486 177.485 30.7286 177.055 30.5586 176.675C30.3886 176.295 30.1586 175.995 29.8686 175.775C29.5886 175.545 29.2386 175.43 28.8186 175.43C28.3986 175.43 28.0436 175.545 27.7536 175.775C27.4736 175.995 27.2486 176.295 27.0786 176.675C26.9086 177.055 26.7836 177.485 26.7036 177.965C26.6336 178.445 26.5986 178.94 26.5986 179.45C26.5986 180.16 26.6636 180.83 26.7936 181.46C26.9336 182.08 27.1636 182.585 27.4836 182.975C27.8136 183.355 28.2586 183.545 28.8186 183.545ZM34.085 185V183.755C34.445 183.445 34.76 183.17 35.03 182.93C35.3 182.69 35.55 182.47 35.78 182.27C36.01 182.06 36.24 181.845 36.47 181.625C36.71 181.405 36.975 181.155 37.265 180.875C37.565 180.585 37.845 180.29 38.105 179.99C38.365 179.69 38.59 179.39 38.78 179.09C38.97 178.78 39.12 178.47 39.23 178.16C39.34 177.85 39.395 177.545 39.395 177.245C39.395 176.645 39.25 176.17 38.96 175.82C38.68 175.46 38.23 175.285 37.61 175.295C37.19 175.295 36.835 175.4 36.545 175.61C36.265 175.82 36.05 176.1 35.9 176.45C35.75 176.8 35.655 177.195 35.615 177.635L34.085 177.395C34.105 176.705 34.27 176.095 34.58 175.565C34.9 175.035 35.32 174.62 35.84 174.32C36.37 174.02 36.955 173.87 37.595 173.87C38.325 173.87 38.95 174.005 39.47 174.275C39.99 174.545 40.385 174.93 40.655 175.43C40.935 175.92 41.075 176.5 41.075 177.17C41.075 177.68 40.985 178.175 40.805 178.655C40.635 179.125 40.4 179.58 40.1 180.02C39.8 180.45 39.46 180.87 39.08 181.28C38.7 181.69 38.295 182.085 37.865 182.465C37.445 182.845 37.03 183.215 36.62 183.575H41.375V185H34.085ZM48.0975 185V182.585H42.6675V181.295L47.7075 174.05H49.7775V181.1H51.1725V182.585H49.7775V185H48.0975ZM44.6325 181.1H48.1725V175.79L44.6325 181.1ZM61.8109 174.575L65.5459 185H63.7459L60.4159 175.49H61.2109L57.8809 185H56.0959L59.8309 174.575H61.8109ZM58.0909 181.475H63.4459L63.8959 182.87H57.6559L58.0909 181.475ZM72.7984 184.04V176.735H74.5084V185H73.7584C73.4784 185 73.2484 184.91 73.0684 184.73C72.8884 184.55 72.7984 184.32 72.7984 184.04ZM70.1884 185.105C69.5484 185.105 68.9834 184.975 68.4934 184.715C68.0034 184.445 67.6234 184.05 67.3534 183.53C67.0834 183.01 66.9484 182.365 66.9484 181.595V176.735H68.6434V181.235C68.6434 181.995 68.8334 182.585 69.2134 183.005C69.5934 183.415 70.0934 183.62 70.7134 183.62C71.1334 183.62 71.4984 183.51 71.8084 183.29C72.1284 183.07 72.3734 182.77 72.5434 182.39C72.7134 182.01 72.7984 181.575 72.7984 181.085L73.0984 181.52C73.0684 182.34 72.9134 183.015 72.6334 183.545C72.3634 184.075 72.0134 184.47 71.5834 184.73C71.1534 184.98 70.6884 185.105 70.1884 185.105ZM80.5896 189.035C79.9196 189.035 79.2996 188.93 78.7296 188.72C78.1696 188.51 77.6846 188.2 77.2746 187.79C76.8646 187.38 76.5546 186.88 76.3446 186.29L77.9046 185.66C78.1346 186.24 78.4946 186.695 78.9846 187.025C79.4746 187.365 80.0096 187.535 80.5896 187.535C81.0596 187.535 81.4696 187.445 81.8196 187.265C82.1796 187.085 82.4596 186.815 82.6596 186.455C82.8596 186.095 82.9596 185.65 82.9596 185.12V183.2C82.7296 183.79 82.3596 184.255 81.8496 184.595C81.3396 184.935 80.7446 185.105 80.0646 185.105C79.3446 185.105 78.6896 184.93 78.0996 184.58C77.5196 184.22 77.0546 183.725 76.7046 183.095C76.3646 182.455 76.1946 181.71 76.1946 180.86C76.1946 180.01 76.3646 179.27 76.7046 178.64C77.0546 178 77.5196 177.505 78.0996 177.155C78.6896 176.805 79.3446 176.63 80.0646 176.63C80.7446 176.63 81.3396 176.8 81.8496 177.14C82.3596 177.47 82.7296 177.93 82.9596 178.52V176.735H84.6846V185.09C84.6846 185.67 84.5896 186.2 84.3996 186.68C84.2196 187.16 83.9546 187.575 83.6046 187.925C83.2546 188.275 82.8246 188.545 82.3146 188.735C81.8146 188.935 81.2396 189.035 80.5896 189.035ZM80.4546 183.62C80.8846 183.62 81.2896 183.515 81.6696 183.305C82.0496 183.095 82.3596 182.785 82.5996 182.375C82.8396 181.955 82.9596 181.45 82.9596 180.86C82.9596 180.26 82.8396 179.76 82.5996 179.36C82.3596 178.95 82.0496 178.64 81.6696 178.43C81.2896 178.22 80.8846 178.115 80.4546 178.115C80.0346 178.115 79.6296 178.22 79.2396 178.43C78.8596 178.64 78.5496 178.95 78.3096 179.36C78.0696 179.76 77.9496 180.26 77.9496 180.86C77.9496 181.45 78.0696 181.955 78.3096 182.375C78.5496 182.785 78.8596 183.095 79.2396 183.305C79.6296 183.515 80.0346 183.62 80.4546 183.62ZM92.7057 184.04V176.735H94.4157V185H93.6657C93.3857 185 93.1557 184.91 92.9757 184.73C92.7957 184.55 92.7057 184.32 92.7057 184.04ZM90.0957 185.105C89.4557 185.105 88.8907 184.975 88.4007 184.715C87.9107 184.445 87.5307 184.05 87.2607 183.53C86.9907 183.01 86.8557 182.365 86.8557 181.595V176.735H88.5507V181.235C88.5507 181.995 88.7407 182.585 89.1207 183.005C89.5007 183.415 90.0007 183.62 90.6207 183.62C91.0407 183.62 91.4057 183.51 91.7157 183.29C92.0357 183.07 92.2807 182.77 92.4507 182.39C92.6207 182.01 92.7057 181.575 92.7057 181.085L93.0057 181.52C92.9757 182.34 92.8207 183.015 92.5407 183.545C92.2707 184.075 91.9207 184.47 91.4907 184.73C91.0607 184.98 90.5957 185.105 90.0957 185.105ZM99.5369 185.105C98.9569 185.105 98.4369 185.005 97.9769 184.805C97.5169 184.595 97.1369 184.315 96.8369 183.965C96.5369 183.615 96.3319 183.235 96.2219 182.825L97.8569 182.465C97.9569 182.835 98.1569 183.13 98.4569 183.35C98.7669 183.56 99.1169 183.665 99.5069 183.665C100.007 183.665 100.382 183.575 100.632 183.395C100.892 183.205 101.022 182.97 101.022 182.69C101.022 182.42 100.907 182.21 100.677 182.06C100.447 181.91 100.147 181.785 99.7769 181.685C99.4169 181.585 99.0319 181.48 98.6219 181.37C98.2119 181.26 97.8219 181.115 97.4519 180.935C97.0919 180.755 96.7969 180.515 96.5669 180.215C96.3369 179.905 96.2219 179.5 96.2219 179C96.2219 178.56 96.3519 178.16 96.6119 177.8C96.8719 177.44 97.2369 177.155 97.7069 176.945C98.1869 176.735 98.7519 176.63 99.4019 176.63C99.9619 176.63 100.457 176.72 100.887 176.9C101.317 177.08 101.672 177.335 101.952 177.665C102.232 177.985 102.422 178.37 102.522 178.82L100.887 179.24C100.787 178.86 100.612 178.57 100.362 178.37C100.112 178.17 99.7719 178.07 99.3419 178.07C98.8819 178.07 98.5319 178.155 98.2919 178.325C98.0619 178.485 97.9469 178.705 97.9469 178.985C97.9469 179.255 98.0619 179.47 98.2919 179.63C98.5219 179.78 98.8169 179.91 99.1769 180.02C99.5369 180.12 99.9169 180.225 100.317 180.335C100.727 180.445 101.112 180.59 101.472 180.77C101.832 180.94 102.127 181.18 102.357 181.49C102.587 181.79 102.702 182.185 102.702 182.675C102.702 183.105 102.572 183.505 102.312 183.875C102.062 184.245 101.697 184.545 101.217 184.775C100.747 184.995 100.187 185.105 99.5369 185.105ZM107.328 185.105C106.698 185.105 106.173 184.89 105.753 184.46C105.333 184.03 105.123 183.445 105.123 182.705V178.13H103.848V176.735H108.858V178.13H106.848V182.81C106.848 183.09 106.918 183.29 107.058 183.41C107.208 183.53 107.368 183.59 107.538 183.59C107.688 183.59 107.823 183.565 107.943 183.515C108.063 183.465 108.178 183.385 108.288 183.275L109.173 184.34C108.893 184.61 108.608 184.805 108.318 184.925C108.028 185.045 107.698 185.105 107.328 185.105ZM104.463 177.38V176.735C104.673 176.735 104.833 176.675 104.943 176.555C105.063 176.435 105.123 176.27 105.123 176.06V174.68H106.848V175.775C106.848 175.915 106.813 176.055 106.743 176.195C106.673 176.325 106.573 176.44 106.443 176.54C106.323 176.63 106.188 176.695 106.038 176.735L104.463 177.38Z" fill="white"/>
<path d="M4.96 135.112C4.224 135.112 3.56267 134.973 2.976 134.696C2.4 134.408 1.93067 134.019 1.568 133.528C1.216 133.037 1.00267 132.472 0.928 131.832L2.848 131.48C2.96533 132.12 3.21067 132.621 3.584 132.984C3.95733 133.347 4.416 133.528 4.96 133.528C5.6 133.528 6.09067 133.384 6.432 133.096C6.784 132.808 6.96 132.429 6.96 131.96C6.96 131.576 6.85333 131.272 6.64 131.048C6.42667 130.824 6.144 130.643 5.792 130.504C5.44 130.365 5.056 130.248 4.64 130.152C4.224 130.045 3.80267 129.928 3.376 129.8C2.96 129.661 2.576 129.48 2.224 129.256C1.872 129.032 1.58933 128.739 1.376 128.376C1.16267 128.003 1.056 127.523 1.056 126.936C1.056 126.285 1.216 125.725 1.536 125.256C1.856 124.776 2.304 124.408 2.88 124.152C3.456 123.896 4.12267 123.768 4.88 123.768C5.50933 123.768 6.096 123.896 6.64 124.152C7.184 124.408 7.632 124.749 7.984 125.176C8.336 125.603 8.53867 126.077 8.592 126.6L6.72 127.08C6.61333 126.525 6.38933 126.093 6.048 125.784C5.70667 125.475 5.28533 125.32 4.784 125.32C4.432 125.32 4.112 125.379 3.824 125.496C3.54667 125.603 3.32267 125.768 3.152 125.992C2.992 126.216 2.912 126.509 2.912 126.872C2.912 127.224 3.01867 127.512 3.232 127.736C3.44533 127.949 3.728 128.125 4.08 128.264C4.432 128.392 4.816 128.509 5.232 128.616C5.648 128.723 6.064 128.845 6.48 128.984C6.896 129.123 7.28 129.309 7.632 129.544C7.984 129.768 8.26667 130.067 8.48 130.44C8.69333 130.813 8.8 131.288 8.8 131.864C8.8 132.419 8.65067 132.947 8.352 133.448C8.064 133.939 7.632 134.339 7.056 134.648C6.49067 134.957 5.792 135.112 4.96 135.112ZM15.0616 135.112C14.347 135.112 13.6963 135 13.1096 134.776C12.5336 134.552 12.0376 134.237 11.6216 133.832C11.2163 133.427 10.9016 132.957 10.6776 132.424C10.4643 131.88 10.3576 131.288 10.3576 130.648C10.3576 129.955 10.4803 129.331 10.7256 128.776C10.9816 128.211 11.323 127.725 11.7496 127.32C12.187 126.915 12.6883 126.605 13.2536 126.392C13.819 126.179 14.411 126.072 15.0296 126.072C15.5843 126.072 16.091 126.147 16.5496 126.296C17.0083 126.445 17.403 126.653 17.7336 126.92C18.075 127.187 18.3363 127.496 18.5176 127.848C18.699 128.2 18.7896 128.579 18.7896 128.984C18.7896 129.549 18.6243 130.019 18.2936 130.392C17.963 130.765 17.531 131.059 16.9976 131.272C16.4643 131.485 15.8776 131.629 15.2376 131.704C14.5976 131.779 13.963 131.8 13.3336 131.768C13.227 131.757 13.0936 131.752 12.9336 131.752C12.7736 131.741 12.6296 131.736 12.5016 131.736C12.3843 131.725 12.3203 131.72 12.3096 131.72C12.3843 132.072 12.5496 132.392 12.8056 132.68C13.0723 132.957 13.403 133.176 13.7976 133.336C14.1923 133.496 14.6136 133.576 15.0616 133.576C15.4243 133.576 15.7816 133.512 16.1336 133.384C16.4963 133.256 16.827 133.08 17.1256 132.856C17.4243 132.632 17.675 132.376 17.8776 132.088L19.2376 133.064C18.8856 133.533 18.4856 133.923 18.0376 134.232C17.6003 134.531 17.131 134.755 16.6296 134.904C16.1283 135.043 15.6056 135.112 15.0616 135.112ZM13.4936 130.312C13.8883 130.312 14.2883 130.296 14.6936 130.264C15.099 130.221 15.4723 130.152 15.8136 130.056C16.1656 129.949 16.4483 129.805 16.6616 129.624C16.875 129.443 16.9816 129.208 16.9816 128.92C16.9816 128.675 16.9016 128.456 16.7416 128.264C16.5923 128.061 16.379 127.901 16.1016 127.784C15.8243 127.667 15.499 127.608 15.1256 127.608C14.571 127.608 14.075 127.731 13.6376 127.976C13.2003 128.221 12.8536 128.547 12.5976 128.952C12.3523 129.357 12.219 129.795 12.1976 130.264C12.347 130.275 12.5336 130.285 12.7576 130.296C12.9816 130.307 13.227 130.312 13.4936 130.312ZM19.8319 126.184H21.6879L23.8319 134.424H23.2239L25.3999 126.184H27.3039L29.3999 134.424H28.7919L30.9199 126.184H32.7119L29.9759 135H28.0559L25.9279 127.176H26.6479L24.5039 135H22.5839L19.8319 126.184ZM37.595 135.112C36.827 135.112 36.1283 134.925 35.499 134.552C34.8803 134.168 34.3843 133.64 34.011 132.968C33.6483 132.285 33.467 131.491 33.467 130.584C33.467 129.677 33.6483 128.888 34.011 128.216C34.3843 127.533 34.8803 127.005 35.499 126.632C36.1283 126.259 36.827 126.072 37.595 126.072C38.3203 126.072 38.955 126.253 39.499 126.616C40.043 126.968 40.4377 127.459 40.683 128.088V126.184H42.523V135H41.707C41.4083 135 41.163 134.904 40.971 134.712C40.779 134.52 40.683 134.275 40.683 133.976V133.08C40.4377 133.709 40.043 134.205 39.499 134.568C38.955 134.931 38.3203 135.112 37.595 135.112ZM38.011 133.528C38.4697 133.528 38.9017 133.416 39.307 133.192C39.7123 132.968 40.043 132.637 40.299 132.2C40.555 131.752 40.683 131.213 40.683 130.584C40.683 129.944 40.555 129.411 40.299 128.984C40.043 128.547 39.7123 128.216 39.307 127.992C38.9017 127.768 38.4697 127.656 38.011 127.656C37.563 127.656 37.131 127.768 36.715 127.992C36.3097 128.216 35.979 128.547 35.723 128.984C35.467 129.411 35.339 129.944 35.339 130.584C35.339 131.213 35.467 131.752 35.723 132.2C35.979 132.637 36.3097 132.968 36.715 133.192C37.131 133.416 37.563 133.528 38.011 133.528ZM49.075 135V123.88H53.315C54.1043 123.88 54.7657 124.013 55.299 124.28C55.8323 124.536 56.2323 124.883 56.499 125.32C56.7763 125.747 56.915 126.221 56.915 126.744C56.915 127.267 56.803 127.715 56.579 128.088C56.355 128.461 56.0563 128.76 55.683 128.984C55.3097 129.197 54.899 129.352 54.451 129.448L54.723 129.256C55.171 129.267 55.5763 129.405 55.939 129.672C56.3123 129.928 56.611 130.264 56.835 130.68C57.059 131.085 57.171 131.528 57.171 132.008C57.171 132.573 57.0217 133.085 56.723 133.544C56.435 133.992 56.019 134.349 55.475 134.616C54.931 134.872 54.2803 135 53.523 135H49.075ZM50.899 133.512H53.363C53.9817 133.512 54.467 133.363 54.819 133.064C55.171 132.765 55.347 132.349 55.347 131.816C55.347 131.261 55.155 130.829 54.771 130.52C54.3977 130.2 53.907 130.04 53.299 130.04H50.899V133.512ZM50.899 128.552H53.155C53.7523 128.552 54.2163 128.419 54.547 128.152C54.8883 127.875 55.059 127.48 55.059 126.968C55.059 126.467 54.8883 126.077 54.547 125.8C54.2163 125.512 53.7523 125.368 53.155 125.368H50.899V128.552ZM59.1531 135V123.16H60.9771V128.024C61.1158 127.651 61.3345 127.32 61.6331 127.032C61.9318 126.733 62.2731 126.499 62.6571 126.328C63.0518 126.157 63.4465 126.072 63.8411 126.072C64.5131 126.072 65.0998 126.221 65.6011 126.52C66.1131 126.808 66.5078 127.229 66.7851 127.784C67.0731 128.339 67.2171 129.011 67.2171 129.8V135H65.4091V130.232C65.4091 129.432 65.2065 128.803 64.8011 128.344C64.3958 127.885 63.8625 127.656 63.2011 127.656C62.7745 127.656 62.3905 127.773 62.0491 128.008C61.7185 128.243 61.4571 128.568 61.2651 128.984C61.0731 129.389 60.9771 129.859 60.9771 130.392V135H59.1531ZM73.0638 135.112C72.2958 135.112 71.5971 134.925 70.9678 134.552C70.3491 134.168 69.8531 133.64 69.4798 132.968C69.1171 132.285 68.9358 131.491 68.9358 130.584C68.9358 129.677 69.1171 128.888 69.4798 128.216C69.8531 127.533 70.3491 127.005 70.9678 126.632C71.5971 126.259 72.2958 126.072 73.0638 126.072C73.7891 126.072 74.4238 126.253 74.9678 126.616C75.5118 126.968 75.9064 127.459 76.1518 128.088V126.184H77.9918V135H77.1758C76.8771 135 76.6318 134.904 76.4398 134.712C76.2478 134.52 76.1518 134.275 76.1518 133.976V133.08C75.9064 133.709 75.5118 134.205 74.9678 134.568C74.4238 134.931 73.7891 135.112 73.0638 135.112ZM73.4798 133.528C73.9384 133.528 74.3704 133.416 74.7758 133.192C75.1811 132.968 75.5118 132.637 75.7678 132.2C76.0238 131.752 76.1518 131.213 76.1518 130.584C76.1518 129.944 76.0238 129.411 75.7678 128.984C75.5118 128.547 75.1811 128.216 74.7758 127.992C74.3704 127.768 73.9384 127.656 73.4798 127.656C73.0318 127.656 72.5998 127.768 72.1838 127.992C71.7784 128.216 71.4478 128.547 71.1918 128.984C70.9358 129.411 70.8078 129.944 70.8078 130.584C70.8078 131.213 70.9358 131.752 71.1918 132.2C71.4478 132.637 71.7784 132.968 72.1838 133.192C72.5998 133.416 73.0318 133.528 73.4798 133.528ZM80.3875 135V126.184H82.2115V135H80.3875ZM81.6835 130.552L82.2115 128.12C82.4248 127.491 82.7715 126.995 83.2515 126.632C83.7422 126.259 84.2968 126.072 84.9155 126.072V127.96C84.8302 127.939 84.7448 127.928 84.6595 127.928C84.5848 127.917 84.5048 127.912 84.4195 127.912C83.9822 127.912 83.5982 128.013 83.2675 128.216C82.9368 128.408 82.6755 128.701 82.4835 129.096C82.3022 129.48 82.2115 129.965 82.2115 130.552H81.6835ZM89.8631 135.112C89.1911 135.112 88.6311 134.883 88.1831 134.424C87.7351 133.965 87.5111 133.341 87.5111 132.552V127.672H86.1511V126.184H91.4951V127.672H89.3511V132.664C89.3511 132.963 89.4258 133.176 89.5751 133.304C89.7351 133.432 89.9058 133.496 90.0871 133.496C90.2471 133.496 90.3911 133.469 90.5191 133.416C90.6471 133.363 90.7698 133.277 90.8871 133.16L91.8311 134.296C91.5325 134.584 91.2285 134.792 90.9191 134.92C90.6098 135.048 90.2578 135.112 89.8631 135.112ZM86.8071 126.872V126.184C87.0311 126.184 87.2018 126.12 87.3191 125.992C87.4471 125.864 87.5111 125.688 87.5111 125.464V123.992H89.3511V125.16C89.3511 125.309 89.3138 125.459 89.2391 125.608C89.1645 125.747 89.0578 125.869 88.9191 125.976C88.7911 126.072 88.6471 126.141 88.4871 126.184L86.8071 126.872ZM93.5605 135V126.184H95.3845V135H93.5605ZM94.4885 125.016C94.1045 125.016 93.7792 124.893 93.5125 124.648C93.2458 124.403 93.1125 124.099 93.1125 123.736C93.1125 123.373 93.2458 123.069 93.5125 122.824C93.7792 122.568 94.1045 122.44 94.4885 122.44C94.8618 122.44 95.1818 122.568 95.4485 122.824C95.7258 123.069 95.8645 123.373 95.8645 123.736C95.8645 124.099 95.7258 124.403 95.4485 124.648C95.1818 124.893 94.8618 125.016 94.4885 125.016Z" fill="black"/>
<line x1="160" y1="39.9914" x2="161" y2="155.991" stroke="#FC4B02" stroke-width="2"/>
<circle cx="159.5" cy="37.5" r="7.5" fill="#FC4B02"/>
<circle cx="160.5" cy="155.5" r="7.5" fill="#FC4B02"/>
</svg>
